v 0.193093 -0.994402 -0.0859701
vn 0.827065 -2.93706 -0.439976
v 0.141433 -0.994402 -0.157075
vn 0.576605 -2.93706 -0.738338
v 0.276683 -0.928723 -0.307286
vn 1.58723 -5.43056 -1.82279
v 0.377747 -0.928723 -0.168183
vn 2.1914 -5.43056 -1.01961
v 0.0653169 -0.994402 -0.20102
vn 0.226449 -2.93706 -0.909032
v 0.127778 -0.928723 -0.393256
vn 0.708613 -5.43056 -2.31078
v -0.022093 -0.994402 -0.210208
vn -0.162866 -2.93706 -0.922545
v -0.0432208 -0.928723 -0.411229
vn -0.292529 -5.43056 -2.39922
v -0.105682 -0.994402 -0.183048
vn -0.52402 -2.93706 -0.776543
v -0.206747 -0.928723 -0.358096
vn -1.2431 -5.43056 -2.07282
v -0.170998 -0.994402 -0.124237
vn -0.794564 -2.93706 -0.496271
v -0.334523 -0.928723 -0.243045
vn -1.97871 -5.43056 -1.388
v -0.206747 -0.994402 -0.0439452
vn -0.927722 -2.93706 -0.130188
v -0.404458 -0.928723 -0.0859701
vn -2.3722 -5.43056 -0.463189
v -0.206747 -0.994402 0.0439457
vn -0.900468 -2.93706 0.258407
v -0.404458 -0.928723 0.0859707
vn -2.3555 -5.43056 0.541716
v -0.170998 -0.994402 0.124239
vn -0.717516 -2.93706 0.602319
v -0.334523 -0.928723 0.243047
vn -1.93152 -5.43056 1.45295
v -0.105682 -0.994402 0.183049
vn -0.410495 -2.93706 0.842086
v -0.206747 -0.928723 0.358098
vn -1.17356 -5.43056 2.11296
v -0.022093 -0.994402 0.210209
vn -0.0325 -2.93706 0.936248
v -0.0432208 -0.928723 0.41123
vn -0.212687 -5.43056 2.40761
v 0.0653169 -0.994402 0.201022
vn 0.351114 -2.93706 0.868524
v 0.127778 -0.928723 0.393257
vn 0.784962 -5.43056 2.28597
v 0.141433 -0.994402 0.157076
vn 0.674021 -2.93706 0.650623
v 0.276683 -0.928723 0.307287
vn 1.64689 -5.43056 1.76906
v 0.193094 -0.994402 0.0859707
vn 0.880382 -2.93706 0.320225
v 0.377747 -0.928723 0.168184
vn 2.22405 -5.43056 0.946271
v 0.211367 -0.994402 6.0595e-07
vn 0.934516 -2.93706 -0.065543
v 0.413496 -0.928723 6.0595e-07
vn 2.41666 -5.43056 -0.040142
v 0.399841 -0.822461 -0.444066
vn 2.3018 -4.79075 -2.6089
v 0.545891 -0.822461 -0.243045
vn 3.16393 -4.79075 -1.44712
v 0.184655 -0.822461 -0.568304
vn 1.04166 -4.79075 -3.31958
v -0.0624603 -0.822461 -0.594278
vn -0.398587 -4.79075 -3.45626
v -0.298774 -0.822461 -0.517494
vn -1.76992 -4.79075 -2.99533
v -0.483428 -0.822461 -0.351232
vn -2.83521 -4.79075 -2.01648
v -0.584492 -0.822461 -0.124237
vn -3.41027 -4.79075 -0.688964
v -0.584492 -0.822461 0.124239
vn -3.39566 -4.79075 0.757684
v -0.483428 -0.822461 0.351232
vn -2.79392 -4.79075 2.07332
v -0.298775 -0.822461 0.517495
vn -1.70908 -4.79075 3.03046
v -0.0624603 -0.822461 0.594278
vn -0.328718 -4.79075 3.46361
v 0.184655 -0.822461 0.568306
vn 1.10847 -4.79075 3.29786
v 0.399841 -0.822461 0.444068
vn 2.35401 -4.79075 2.56189
v 0.545891 -0.822461 0.243047
vn 3.19251 -4.79075 1.38294
v 0.597552 -0.822461 6.0595e-07
vn 3.47899 -4.79075 -0.035127
v 0.505524 -0.680249 -0.56144
vn 2.90905 -3.94507 -3.27366
v 0.69018 -0.680249 -0.307286
vn 3.98906 -3.94507 -1.80742
v 0.233461 -0.680249 -0.718512
vn 1.32603 -3.94507 -4.17385
v -0.0789694 -0.680249 -0.751355
vn -0.486269 -3.94507 -4.35235
v -0.377745 -0.680249 -0.654275
vn -2.21449 -3.94507 -3.77829
v -0.611205 -0.680249 -0.444067
vn -3.5598 -3.94507 -2.55092
v -0.738984 -0.680249 -0.157075
vn -4.28959 -3.94507 -0.882477
v -0.738984 -0.680249 0.157076
vn -4.27767 -3.94507 0.938552
v -0.611205 -0.680249 0.444068
vn -3.5261 -3.94507 2.5973
v -0.377745 -0.680249 0.654275
vn -2.16484 -3.94507 3.80694
v -0.0789694 -0.680249 0.751355
vn -0.429258 -3.94507 4.35834
v 0.233461 -0.680249 0.718518
vn 1.38055 -3.94507 4.15614
v 0.505524 -0.680249 0.561441
vn 2.95165 -3.94507 3.2353
v 0.69018 -0.680249 0.307287
vn 4.01238 -3.94507 1.75505
v 0.755491 -0.680249 6.0595e-07
vn 4.37933 -3.94507 -0.028663
v 0.589113 -0.508308 -0.654275
vn 3.38503 -2.93568 -3.79106
v 0.804302 -0.508308 -0.358096
vn 4.63434 -2.93568 -2.08649
v 0.272064 -0.508308 -0.837322
vn 1.55042 -2.93568 -4.84012
v -0.0920272 -0.508308 -0.875592
vn -0.552274 -2.93568 -5.05228
v -0.440206 -0.508308 -0.762461
vn -2.55947 -2.93568 -4.39085
v -0.712272 -0.508308 -0.517494
vn -4.12412 -2.93568 -2.97021
v -0.861175 -0.508308 -0.183048
vn -4.97566 -2.93568 -1.03599
v -0.861175 -0.508308 0.183049
vn -4.96687 -2.93568 1.07736
v -0.712272 -0.508308 0.517495
vn -4.09926 -2.93568 3.00442
v -0.440206 -0.508308 0.762461
vn -2.52285 -2.93568 4.412
v -0.0920272 -0.508308 0.875592
vn -0.510217 -2.93568 5.0567
v 0.272064 -0.508308 0.837322
vn 1.59064 -2.93568 4.82705
v 0.589113 -0.508308 0.654275
vn 3.41645 -2.93568 3.76276
v 0.804302 -0.508308 0.358098
vn 4.65154 -2.93568 2.04785
v 0.880414 -0.508308 6.0595e-07
vn 5.08233 -2.93568 -0.021145
v 0.646955 -0.314151 -0.718512
vn 3.71302 -1.80851 -4.14306
v 0.883274 -0.314151 -0.393256
vn 5.07714 -1.80851 -2.27466
v 0.298777 -0.314151 -0.919535
vn 1.70688 -1.80851 -5.29509
v -0.101063 -0.314151 -0.961559
vn -0.594397 -1.80851 -5.53156
v -0.483428 -0.314151 -0.837322
vn -2.7929 -1.80851 -4.81157
v -0.782203 -0.314151 -0.568304
vn -4.50848 -1.80851 -3.25961
v -0.945732 -0.314151 -0.201021
vn -5.4445 -1.80851 -1.14404
v -0.945732 -0.314151 0.201022
vn -5.43913 -1.80851 1.16935
v -0.782203 -0.314151 0.568306
vn -4.49327 -1.80851 3.28054
v -0.483429 -0.314151 0.837322
vn -2.77049 -1.80851 4.8245
v -0.101063 -0.314151 0.961559
vn -0.568663 -1.80851 5.53427
v 0.298777 -0.314151 0.919535
vn 1.73149 -1.80851 5.2871
v 0.646955 -0.314151 0.718518
vn 3.73225 -1.80851 4.12575
v 0.883274 -0.314151 0.393257
vn 5.08767 -1.80851 2.25101
v 0.966858 -0.314151 6.0595e-07
vn 5.56339 -1.80851 -0.012939
v 0.676526 -0.106265 -0.751355
vn 3.8827 -0.610677 -4.31869
v 0.923639 -0.106265 -0.411229
vn 5.3036 -0.610676 -2.36608
v 0.312431 -0.106265 -0.961559
vn 1.79046 -0.610677 -5.52456
v -0.105682 -0.106265 -1.00551
vn -0.611369 -0.610677 -5.77518
v -0.505522 -0.106265 -0.875592
vn -2.90749 -0.610675 -5.02722
v -0.81795 -0.106265 -0.594278
vn -4.70088 -0.610675 -3.41001
v -0.988951 -0.106265 -0.210208
vn -5.68145 -0.610674 -1.20318
v -0.988951 -0.106265 0.210209
vn -5.67964 -0.610674 1.21169
v -0.81795 -0.106265 0.594278
vn -4.69577 -0.610672 3.41705
v -0.505522 -0.106265 0.875592
vn -2.89996 -0.610675 5.03157
v -0.105682 -0.106265 1.00551
vn -0.602712 -0.610679 5.77609
v 0.312431 -0.106265 0.961559
vn 1.79874 -0.610677 5.52186
v 0.676526 -0.106265 0.751355
vn 3.88917 -0.610677 4.31286
v 0.923639 -0.106265 0.41123
vn 5.30714 -0.610676 2.35812
v 1.01105 -0.106265 6.0595e-07
vn 5.80745 -0.610676 -0.004353
v 0.676526 0.106265 -0.751355
vn 3.88917 0.610677 -4.31286
v 0.923639 0.106265 -0.411229
vn 5.30714 0.610677 -2.35813
v 0.312431 0.106265 -0.961559
vn 1.79874 0.610677 -5.52186
v -0.105682 0.106265 -1.00551
vn -0.60271 0.610676 -5.77609
v -0.505522 0.106265 -0.875592
vn -2.89995 0.610675 -5.03157
v -0.81795 0.106265 -0.594278
vn -4.69576 0.610674 -3.41705
v -0.988951 0.106265 -0.210208
vn -5.67963 0.610674 -1.21169
v -0.988951 0.106265 0.210209
vn -5.68145 0.610672 1.20318
v -0.81795 0.106265 0.594278
vn -4.70088 0.610672 3.41001
v -0.505522 0.106265 0.875592
vn -2.9075 0.610677 5.02722
v -0.105682 0.106265 1.00551
vn -0.611371 0.610678 5.77518
v 0.312431 0.106265 0.961559
vn 1.79046 0.610677 5.52456
v 0.676526 0.106265 0.751355
vn 3.8827 0.610677 4.31869
v 0.923639 0.106265 0.41123
vn 5.3036 0.610676 2.36608
v 1.01105 0.106265 6.0595e-07
vn 5.80745 0.610676 0.004354
v 0.646955 0.314151 -0.718512
vn 3.73225 1.80851 -4.12574
v 0.883274 0.314151 -0.393256
vn 5.08767 1.80851 -2.25101
v 0.298777 0.314151 -0.919535
vn 1.73149 1.80851 -5.2871
v -0.101063 0.314151 -0.961559
vn -0.568661 1.80851 -5.53426
v -0.483428 0.314151 -0.837322
vn -2.77048 1.80851 -4.8245
v -0.782203 0.314151 -0.568304
vn -4.49327 1.80851 -3.28054
v -0.945732 0.314151 -0.201021
vn -5.43912 1.80851 -1.16935
v -0.945732 0.314151 0.201022
vn -5.44451 1.80851 1.14404
v -0.782203 0.314151 0.568306
vn -4.50848 1.80851 3.25961
v -0.483429 0.314151 0.837322
vn -2.7929 1.80851 4.81157
v -0.101063 0.314151 0.961559
vn -0.594398 1.80851 5.53156
v 0.298777 0.314151 0.919535
vn 1.70688 1.80851 5.2951
v 0.646955 0.314151 0.718518
vn 3.71302 1.80851 4.14306
v 0.883274 0.314151 0.393257
vn 5.07715 1.80851 2.27465
v 0.966858 0.314151 6.0595e-07
vn 5.56339 1.80851 0.012939
v 0.589113 0.508308 -0.654275
vn 3.41646 2.93568 -3.76276
v 0.804302 0.508308 -0.358096
vn 4.65154 2.93568 -2.04785
v 0.272064 0.508308 -0.837322
vn 1.59064 2.93568 -4.82705
v -0.0920272 0.508308 -0.875592
vn -0.510216 2.93568 -5.0567
v -0.440206 0.508308 -0.762461
vn -2.52285 2.93568 -4.412
v -0.712272 0.508308 -0.517494
vn -4.09926 2.93568 -3.00443
v -0.861175 0.508308 -0.183048
vn -4.96687 2.93568 -1.07736
v -0.861175 0.508308 0.183049
vn -4.97566 2.93568 1.03599
v -0.712272 0.508308 0.517495
vn -4.12412 2.93569 2.97021
v -0.440206 0.508308 0.762461
vn -2.55948 2.93568 4.39085
v -0.0920272 0.508308 0.875592
vn -0.552275 2.93568 5.05228
v 0.272064 0.508308 0.837322
vn 1.55042 2.93568 4.84012
v 0.589113 0.508308 0.654275
vn 3.38503 2.93568 3.79105
v 0.804302 0.508308 0.358098
vn 4.63434 2.93568 2.08649
v 0.880414 0.508308 6.0595e-07
vn 5.08233 2.93569 0.021145
v 0.505524 0.680249 -0.56144
vn 2.95165 3.94507 -3.2353
v 0.69018 0.680249 -0.307286
vn 4.01238 3.94507 -1.75505
v 0.233461 0.680249 -0.718512
vn 1.38055 3.94507 -4.15614
v -0.0789694 0.680249 -0.751355
vn -0.429257 3.94507 -4.35834
v -0.377745 0.680249 -0.654275
vn -2.16484 3.94507 -3.80695
v -0.611205 0.680249 -0.444067
vn -3.5261 3.94507 -2.5973
v -0.738984 0.680249 -0.157075
vn -4.27767 3.94507 -0.938552
v -0.738984 0.680249 0.157076
vn -4.28959 3.94507 0.882478
v -0.611205 0.680249 0.444068
vn -3.5598 3.94507 2.55092
v -0.377745 0.680249 0.654275
vn -2.21449 3.94507 3.77828
v -0.0789694 0.680249 0.751355
vn -0.486272 3.94507 4.35234
v 0.233461 0.680249 0.718518
vn 1.32603 3.94507 4.17385
v 0.505524 0.680249 0.561441
vn 2.90904 3.94507 3.27366
v 0.69018 0.680249 0.307287
vn 3.98906 3.94507 1.80742
v 0.755491 0.680249 6.0595e-07
vn 4.37933 3.94507 0.028663
v 0.399841 0.822461 -0.444066
vn 2.35401 4.79075 -2.56189
v 0.545891 0.822461 -0.243045
vn 3.19251 4.79075 -1.38294
v 0.184655 0.822461 -0.568304
vn 1.10848 4.79075 -3.29786
v -0.0624603 0.822461 -0.594278
vn -0.328718 4.79075 -3.46361
v -0.298774 0.822461 -0.517494
vn -1.70907 4.79075 -3.03046
v -0.483428 0.822461 -0.351232
vn -2.79391 4.79075 -2.07332
v -0.584492 0.822461 -0.124237
vn -3.39566 4.79075 -0.757683
v -0.584492 0.822461 0.124239
vn -3.41027 4.79075 0.688964
v -0.483428 0.822461 0.351232
vn -2.83521 4.79075 2.01648
v -0.298775 0.822461 0.517495
vn -1.76992 4.79075 2.99533
v -0.0624603 0.822461 0.594278
vn -0.39859 4.79075 3.45626
v 0.184655 0.822461 0.568306
vn 1.04166 4.79075 3.31957
v 0.399841 0.822461 0.444068
vn 2.3018 4.79075 2.6089
v 0.545891 0.822461 0.243047
vn 3.16393 4.79075 1.44712
v 0.597552 0.822461 6.0595e-07
vn 3.47899 4.79075 0.035128
v 0.276683 0.928723 -0.307286
vn 1.64689 5.43056 -1.76907
v 0.377747 0.928723 -0.168183
vn 2.22405 5.43056 -0.946271
v 0.127778 0.928723 -0.393256
vn 0.784966 5.43056 -2.28597
v -0.0432208 0.928723 -0.411229
vn -0.212687 5.43056 -2.40761
v -0.206747 0.928723 -0.358096
vn -1.17357 5.43056 -2.11296
v -0.334523 0.928723 -0.243045
vn -1.93152 5.43056 -1.45295
v -0.404458 0.928723 -0.0859701
vn -2.3555 5.43056 -0.541717
v -0.404458 0.928723 0.0859707
vn -2.3722 5.43056 0.463188
v -0.334523 0.928723 0.243047
vn -1.97871 5.43056 1.388
v -0.206747 0.928723 0.358098
vn -1.24309 5.43056 2.07281
v -0.0432208 0.928723 0.41123
vn -0.292529 5.43056 2.39922
v 0.127778 0.928723 0.393257
vn 0.708609 5.43056 2.31078
v 0.276683 0.928723 0.307287
vn 1.58723 5.43056 1.82278
v 0.377747 0.928723 0.168184
vn 2.1914 5.43056 1.01961
v 0.413496 0.928723 6.0595e-07
vn 2.41666 5.43056 0.040141
v 0.141433 0.994402 -0.157075
vn 0.674021 2.93706 -0.650624
v 0.193093 0.994402 -0.0859701
vn 0.880382 2.93706 -0.320226
v 0.0653169 0.994402 -0.20102
vn 0.351115 2.93706 -0.868525
v -0.022093 0.994402 -0.210208
vn -0.032498 2.93706 -0.936248
v -0.105682 0.994402 -0.183048
vn -0.410499 2.93706 -0.842085
v -0.170998 0.994402 -0.124237
vn -0.717515 2.93706 -0.60232
v -0.206747 0.994402 -0.0439452
vn -0.900468 2.93706 -0.258408
v -0.206747 0.994402 0.0439457
vn -0.927722 2.93706 0.130187
v -0.170998 0.994402 0.124239
vn -0.794565 2.93706 0.49627
v -0.105682 0.994402 0.183049
vn -0.524019 2.93706 0.776544
v -0.022093 0.994402 0.210209
vn -0.162865 2.93706 0.922547
v 0.0653169 0.994402 0.201022
vn 0.226446 2.93706 0.909032
v 0.141433 0.994402 0.157076
vn 0.576605 2.93706 0.738336
v 0.193094 0.994402 0.0859707
vn 0.827066 2.93706 0.439976
v 0.211367 0.994402 6.0595e-07
vn 0.934517 2.93706 0.065542
v 1.2119e-06 -1.01662 6.0595e-07
vn -0 -0.675154 -0
v 1.2119e-06 1.01662 6.0595e-07
vn 0 0.675154 -0
f 1//1 2//2 3//3
f 1//1 3//3 4//4
f 2//2 5//5 6//6
f 2//2 6//6 3//3
f 5//5 7//7 8//8
f 5//5 8//8 6//6
f 7//7 9//9 10//10
f 7//7 10//10 8//8
f 9//9 11//11 12//12
f 9//9 12//12 10//10
f 11//11 13//13 14//14
f 11//11 14//14 12//12
f 13//13 15//15 16//16
f 13//13 16//16 14//14
f 15//15 17//17 18//18
f 15//15 18//18 16//16
f 17//17 19//19 20//20
f 17//17 20//20 18//18
f 19//19 21//21 22//22
f 19//19 22//22 20//20
f 21//21 23//23 24//24
f 21//21 24//24 22//22
f 23//23 25//25 26//26
f 23//23 26//26 24//24
f 25//25 27//27 28//28
f 25//25 28//28 26//26
f 27//27 29//29 30//30
f 27//27 30//30 28//28
f 29//29 1//1 4//4
f 29//29 4//4 30//30
f 4//4 3//3 31//31
f 4//4 31//31 32//32
f 3//3 6//6 33//33
f 3//3 33//33 31//31
f 6//6 8//8 34//34
f 6//6 34//34 33//33
f 8//8 10//10 35//35
f 8//8 35//35 34//34
f 10//10 12//12 36//36
f 10//10 36//36 35//35
f 12//12 14//14 37//37
f 12//12 37//37 36//36
f 14//14 16//16 38//38
f 14//14 38//38 37//37
f 16//16 18//18 39//39
f 16//16 39//39 38//38
f 18//18 20//20 40//40
f 18//18 40//40 39//39
f 20//20 22//22 41//41
f 20//20 41//41 40//40
f 22//22 24//24 42//42
f 22//22 42//42 41//41
f 24//24 26//26 43//43
f 24//24 43//43 42//42
f 26//26 28//28 44//44
f 26//26 44//44 43//43
f 28//28 30//30 45//45
f 28//28 45//45 44//44
f 30//30 4//4 32//32
f 30//30 32//32 45//45
f 32//32 31//31 46//46
f 32//32 46//46 47//47
f 31//31 33//33 48//48
f 31//31 48//48 46//46
f 33//33 34//34 49//49
f 33//33 49//49 48//48
f 34//34 35//35 50//50
f 34//34 50//50 49//49
f 35//35 36//36 51//51
f 35//35 51//51 50//50
f 36//36 37//37 52//52
f 36//36 52//52 51//51
f 37//37 38//38 53//53
f 37//37 53//53 52//52
f 38//38 39//39 54//54
f 38//38 54//54 53//53
f 39//39 40//40 55//55
f 39//39 55//55 54//54
f 40//40 41//41 56//56
f 40//40 56//56 55//55
f 41//41 42//42 57//57
f 41//41 57//57 56//56
f 42//42 43//43 58//58
f 42//42 58//58 57//57
f 43//43 44//44 59//59
f 43//43 59//59 58//58
f 44//44 45//45 60//60
f 44//44 60//60 59//59
f 45//45 32//32 47//47
f 45//45 47//47 60//60
f 47//47 46//46 61//61
f 47//47 61//61 62//62
f 46//46 48//48 63//63
f 46//46 63//63 61//61
f 48//48 49//49 64//64
f 48//48 64//64 63//63
f 49//49 50//50 65//65
f 49//49 65//65 64//64
f 50//50 51//51 66//66
f 50//50 66//66 65//65
f 51//51 52//52 67//67
f 51//51 67//67 66//66
f 52//52 53//53 68//68
f 52//52 68//68 67//67
f 53//53 54//54 69//69
f 53//53 69//69 68//68
f 54//54 55//55 70//70
f 54//54 70//70 69//69
f 55//55 56//56 71//71
f 55//55 71//71 70//70
f 56//56 57//57 72//72
f 56//56 72//72 71//71
f 57//57 58//58 73//73
f 57//57 73//73 72//72
f 58//58 59//59 74//74
f 58//58 74//74 73//73
f 59//59 60//60 75//75
f 59//59 75//75 74//74
f 60//60 47//47 62//62
f 60//60 62//62 75//75
f 62//62 61//61 76//76
f 62//62 76//76 77//77
f 61//61 63//63 78//78
f 61//61 78//78 76//76
f 63//63 64//64 79//79
f 63//63 79//79 78//78
f 64//64 65//65 80//80
f 64//64 80//80 79//79
f 65//65 66//66 81//81
f 65//65 81//81 80//80
f 66//66 67//67 82//82
f 66//66 82//82 81//81
f 67//67 68//68 83//83
f 67//67 83//83 82//82
f 68//68 69//69 84//84
f 68//68 84//84 83//83
f 69//69 70//70 85//85
f 69//69 85//85 84//84
f 70//70 71//71 86//86
f 70//70 86//86 85//85
f 71//71 72//72 87//87
f 71//71 87//87 86//86
f 72//72 73//73 88//88
f 72//72 88//88 87//87
f 73//73 74//74 89//89
f 73//73 89//89 88//88
f 74//74 75//75 90//90
f 74//74 90//90 89//89
f 75//75 62//62 77//77
f 75//75 77//77 90//90
f 77//77 76//76 91//91
f 77//77 91//91 92//92
f 76//76 78//78 93//93
f 76//76 93//93 91//91
f 78//78 79//79 94//94
f 78//78 94//94 93//93
f 79//79 80//80 95//95
f 79//79 95//95 94//94
f 80//80 81//81 96//96
f 80//80 96//96 95//95
f 81//81 82//82 97//97
f 81//81 97//97 96//96
f 82//82 83//83 98//98
f 82//82 98//98 97//97
f 83//83 84//84 99//99
f 83//83 99//99 98//98
f 84//84 85//85 100//100
f 84//84 100//100 99//99
f 85//85 86//86 101//101
f 85//85 101//101 100//100
f 86//86 87//87 102//102
f 86//86 102//102 101//101
f 87//87 88//88 103//103
f 87//87 103//103 102//102
f 88//88 89//89 104//104
f 88//88 104//104 103//103
f 89//89 90//90 105//105
f 89//89 105//105 104//104
f 90//90 77//77 92//92
f 90//90 92//92 105//105
f 92//92 91//91 106//106
f 92//92 106//106 107//107
f 91//91 93//93 108//108
f 91//91 108//108 106//106
f 93//93 94//94 109//109
f 93//93 109//109 108//108
f 94//94 95//95 110//110
f 94//94 110//110 109//109
f 95//95 96//96 111//111
f 95//95 111//111 110//110
f 96//96 97//97 112//112
f 96//96 112//112 111//111
f 97//97 98//98 113//113
f 97//97 113//113 112//112
f 98//98 99//99 114//114
f 98//98 114//114 113//113
f 99//99 100//100 115//115
f 99//99 115//115 114//114
f 100//100 101//101 116//116
f 100//100 116//116 115//115
f 101//101 102//102 117//117
f 101//101 117//117 116//116
f 102//102 103//103 118//118
f 102//102 118//118 117//117
f 103//103 104//104 119//119
f 103//103 119//119 118//118
f 104//104 105//105 120//120
f 104//104 120//120 119//119
f 105//105 92//92 107//107
f 105//105 107//107 120//120
f 107//107 106//106 121//121
f 107//107 121//121 122//122
f 106//106 108//108 123//123
f 106//106 123//123 121//121
f 108//108 109//109 124//124
f 108//108 124//124 123//123
f 109//109 110//110 125//125
f 109//109 125//125 124//124
f 110//110 111//111 126//126
f 110//110 126//126 125//125
f 111//111 112//112 127//127
f 111//111 127//127 126//126
f 112//112 113//113 128//128
f 112//112 128//128 127//127
f 113//113 114//114 129//129
f 113//113 129//129 128//128
f 114//114 115//115 130//130
f 114//114 130//130 129//129
f 115//115 116//116 131//131
f 115//115 131//131 130//130
f 116//116 117//117 132//132
f 116//116 132//132 131//131
f 117//117 118//118 133//133
f 117//117 133//133 132//132
f 118//118 119//119 134//134
f 118//118 134//134 133//133
f 119//119 120//120 135//135
f 119//119 135//135 134//134
f 120//120 107//107 122//122
f 120//120 122//122 135//135
f 122//122 121//121 136//136
f 122//122 136//136 137//137
f 121//121 123//123 138//138
f 121//121 138//138 136//136
f 123//123 124//124 139//139
f 123//123 139//139 138//138
f 124//124 125//125 140//140
f 124//124 140//140 139//139
f 125//125 126//126 141//141
f 125//125 141//141 140//140
f 126//126 127//127 142//142
f 126//126 142//142 141//141
f 127//127 128//128 143//143
f 127//127 143//143 142//142
f 128//128 129//129 144//144
f 128//128 144//144 143//143
f 129//129 130//130 145//145
f 129//129 145//145 144//144
f 130//130 131//131 146//146
f 130//130 146//146 145//145
f 131//131 132//132 147//147
f 131//131 147//147 146//146
f 132//132 133//133 148//148
f 132//132 148//148 147//147
f 133//133 134//134 149//149
f 133//133 149//149 148//148
f 134//134 135//135 150//150
f 134//134 150//150 149//149
f 135//135 122//122 137//137
f 135//135 137//137 150//150
f 137//137 136//136 151//151
f 137//137 151//151 152//152
f 136//136 138//138 153//153
f 136//136 153//153 151//151
f 138//138 139//139 154//154
f 138//138 154//154 153//153
f 139//139 140//140 155//155
f 139//139 155//155 154//154
f 140//140 141//141 156//156
f 140//140 156//156 155//155
f 141//141 142//142 157//157
f 141//141 157//157 156//156
f 142//142 143//143 158//158
f 142//142 158//158 157//157
f 143//143 144//144 159//159
f 143//143 159//159 158//158
f 144//144 145//145 160//160
f 144//144 160//160 159//159
f 145//145 146//146 161//161
f 145//145 161//161 160//160
f 146//146 147//147 162//162
f 146//146 162//162 161//161
f 147//147 148//148 163//163
f 147//147 163//163 162//162
f 148//148 149//149 164//164
f 148//148 164//164 163//163
f 149//149 150//150 165//165
f 149//149 165//165 164//164
f 150//150 137//137 152//152
f 150//150 152//152 165//165
f 152//152 151//151 166//166
f 152//152 166//166 167//167
f 151//151 153//153 168//168
f 151//151 168//168 166//166
f 153//153 154//154 169//169
f 153//153 169//169 168//168
f 154//154 155//155 170//170
f 154//154 170//170 169//169
f 155//155 156//156 171//171
f 155//155 171//171 170//170
f 156//156 157//157 172//172
f 156//156 172//172 171//171
f 157//157 158//158 173//173
f 157//157 173//173 172//172
f 158//158 159//159 174//174
f 158//158 174//174 173//173
f 159//159 160//160 175//175
f 159//159 175//175 174//174
f 160//160 161//161 176//176
f 160//160 176//176 175//175
f 161//161 162//162 177//177
f 161//161 177//177 176//176
f 162//162 163//163 178//178
f 162//162 178//178 177//177
f 163//163 164//164 179//179
f 163//163 179//179 178//178
f 164//164 165//165 180//180
f 164//164 180//180 179//179
f 165//165 152//152 167//167
f 165//165 167//167 180//180
f 167//167 166//166 181//181
f 167//167 181//181 182//182
f 166//166 168//168 183//183
f 166//166 183//183 181//181
f 168//168 169//169 184//184
f 168//168 184//184 183//183
f 169//169 170//170 185//185
f 169//169 185//185 184//184
f 170//170 171//171 186//186
f 170//170 186//186 185//185
f 171//171 172//172 187//187
f 171//171 187//187 186//186
f 172//172 173//173 188//188
f 172//172 188//188 187//187
f 173//173 174//174 189//189
f 173//173 189//189 188//188
f 174//174 175//175 190//190
f 174//174 190//190 189//189
f 175//175 176//176 191//191
f 175//175 191//191 190//190
f 176//176 177//177 192//192
f 176//176 192//192 191//191
f 177//177 178//178 193//193
f 177//177 193//193 192//192
f 178//178 179//179 194//194
f 178//178 194//194 193//193
f 179//179 180//180 195//195
f 179//179 195//195 194//194
f 180//180 167//167 182//182
f 180//180 182//182 195//195
f 182//182 181//181 196//196
f 182//182 196//196 197//197
f 181//181 183//183 198//198
f 181//181 198//198 196//196
f 183//183 184//184 199//199
f 183//183 199//199 198//198
f 184//184 185//185 200//200
f 184//184 200//200 199//199
f 185//185 186//186 201//201
f 185//185 201//201 200//200
f 186//186 187//187 202//202
f 186//186 202//202 201//201
f 187//187 188//188 203//203
f 187//187 203//203 202//202
f 188//188 189//189 204//204
f 188//188 204//204 203//203
f 189//189 190//190 205//205
f 189//189 205//205 204//204
f 190//190 191//191 206//206
f 190//190 206//206 205//205
f 191//191 192//192 207//207
f 191//191 207//207 206//206
f 192//192 193//193 208//208
f 192//192 208//208 207//207
f 193//193 194//194 209//209
f 193//193 209//209 208//208
f 194//194 195//195 210//210
f 194//194 210//210 209//209
f 195//195 182//182 197//197
f 195//195 197//197 210//210
f 2//2 1//1 211//211
f 5//5 2//2 211//211
f 7//7 5//5 211//211
f 9//9 7//7 211//211
f 11//11 9//9 211//211
f 13//13 11//11 211//211
f 15//15 13//13 211//211
f 17//17 15//15 211//211
f 19//19 17//17 211//211
f 21//21 19//19 211//211
f 23//23 21//21 211//211
f 25//25 23//23 211//211
f 27//27 25//25 211//211
f 29//29 27//27 211//211
f 1//1 29//29 211//211
f 197//197 196//196 212//212
f 196//196 198//198 212//212
f 198//198 199//199 212//212
f 199//199 200//200 212//212
f 200//200 201//201 212//212
f 201//201 202//202 212//212
f 202//202 203//203 212//212
f 203//203 204//204 212//212
f 204//204 205//205 212//212
f 205//205 206//206 212//212
f 206//206 207//207 212//212
f 207//207 208//208 212//212
f 208//208 209//209 212//212
f 209//209 210//210 212//212
f 210//210 197//197 212//212
