####
#
# OBJ File Generated by Meshlab
#
####
# Object lightsource.obj
#
# Vertices: 8
# Faces: 12
#
####
vn -1.000000 -1.000000 2.000000
v -1.050000 9.882112 1.050000
vn 2.000000 -2.000000 1.000000
v 1.050000 9.882112 1.050000
vn -2.000000 2.000000 1.000000
v -1.050000 9.933716 1.050000
vn 1.000000 1.000000 2.000000
v 1.050000 9.933716 1.050000
vn -1.000000 1.000000 -2.000000
v -1.050000 9.933716 -1.050000
vn 2.000000 2.000000 -1.000000
v 1.050000 9.933716 -1.050000
vn -2.000000 -2.000000 -1.000000
v -1.050000 9.882112 -1.050000
vn 1.000000 -1.000000 -2.000000
v 1.050000 9.882112 -1.050000
# 8 vertices, 0 vertices normals

f 1//1 2//2 4//4
f 1//1 4//4 3//3
f 3//3 4//4 6//6
f 3//3 6//6 5//5
f 5//5 6//6 8//8
f 5//5 8//8 7//7
f 7//7 8//8 2//2
f 7//7 2//2 1//1
f 2//2 8//8 6//6
f 2//2 6//6 4//4
f 7//7 1//1 3//3
f 7//7 3//3 5//5
# 12 faces, 0 coords texture

# End of File
