####
#
# OBJ File Generated by Meshlab
#
####
# Object sphere1.obj
#
# Vertices: 212
# Faces: 420
#
####
vn 0.827065 -2.937056 -0.439976
v -2.081372 0.034964 -1.695574
vn 0.576605 -2.937056 -0.738338
v -2.162678 0.034964 -1.807483
vn 0.226449 -2.937056 -0.909032
v -2.282473 0.034964 -1.876646
vn -0.162866 -2.937057 -0.922545
v -2.420043 0.034964 -1.891106
vn -0.524020 -2.937057 -0.776543
v -2.551600 0.034964 -1.848360
vn -0.794564 -2.937056 -0.496271
v -2.654397 0.034964 -1.755801
vn -0.927722 -2.937056 -0.130188
v -2.710660 0.034964 -1.629433
vn -0.900468 -2.937056 0.258407
v -2.710660 0.034964 -1.491106
vn -0.717516 -2.937057 0.602319
v -2.654397 0.034964 -1.364737
vn -0.410495 -2.937056 0.842086
v -2.551600 0.034964 -1.272178
vn -0.032500 -2.937056 0.936248
v -2.420043 0.034964 -1.229433
vn 0.351114 -2.937057 0.868524
v -2.282473 0.034964 -1.243892
vn 0.674021 -2.937056 0.650623
v -2.162678 0.034964 -1.313056
vn 0.880382 -2.937055 0.320225
v -2.081371 0.034964 -1.424965
vn 0.934516 -2.937056 -0.065543
v -2.052612 0.034964 -1.560269
vn 2.191401 -5.430560 -1.019613
v -1.790755 0.138327 -1.824965
vn 1.587228 -5.430561 -1.822785
v -1.949814 0.138327 -2.043892
vn 0.708613 -5.430561 -2.310783
v -2.184169 0.138327 -2.179196
vn -0.292529 -5.430561 -2.399222
v -2.453295 0.138327 -2.207483
vn -1.243095 -5.430560 -2.072816
v -2.710660 0.138327 -2.123860
vn -1.978712 -5.430560 -1.388002
v -2.911761 0.138327 -1.942787
vn -2.372195 -5.430559 -0.463189
v -3.021828 0.138327 -1.695574
vn -2.355503 -5.430559 0.541716
v -3.021828 0.138327 -1.424965
vn -1.931525 -5.430560 1.452949
v -2.911761 0.138327 -1.177751
vn -1.173564 -5.430561 2.112957
v -2.710660 0.138327 -0.996678
vn -0.212687 -5.430561 2.407615
v -2.453295 0.138327 -0.913056
vn 0.784962 -5.430560 2.285974
v -2.184169 0.138327 -0.941342
vn 1.646891 -5.430561 1.769064
v -1.949814 0.138327 -1.076646
vn 2.224054 -5.430561 0.946271
v -1.790755 0.138327 -1.295574
vn 2.416657 -5.430561 -0.040142
v -1.734492 0.138327 -1.560269
vn 3.163931 -4.790748 -1.447124
v -1.526121 0.305573 -1.942787
vn 2.301796 -4.790747 -2.608900
v -1.755982 0.305573 -2.259164
vn 1.041661 -4.790746 -3.319576
v -2.094653 0.305573 -2.454696
vn -0.398587 -4.790747 -3.456263
v -2.483575 0.305573 -2.495574
vn -1.769918 -4.790749 -2.995332
v -2.855498 0.305573 -2.374728
vn -2.835210 -4.790749 -2.016482
v -3.146115 0.305573 -2.113056
vn -3.410271 -4.790749 -0.688964
v -3.305175 0.305573 -1.755801
vn -3.395664 -4.790749 0.757684
v -3.305175 0.305573 -1.364737
vn -2.793919 -4.790747 2.073320
v -3.146115 0.305573 -1.007483
vn -1.709077 -4.790746 3.030460
v -2.855499 0.305573 -0.745810
vn -0.328718 -4.790748 3.463607
v -2.483575 0.305573 -0.624965
vn 1.108475 -4.790748 3.297863
v -2.094653 0.305573 -0.665842
vn 2.354005 -4.790748 2.561890
v -1.755982 0.305573 -0.861374
vn 3.192507 -4.790748 1.382942
v -1.526121 0.305573 -1.177751
vn 3.478992 -4.790747 -0.035127
v -1.444814 0.305573 -1.560269
vn 3.989062 -3.945068 -1.807422
v -1.299036 0.529391 -2.043892
vn 2.909046 -3.945068 -3.273660
v -1.589653 0.529391 -2.443892
vn 1.326030 -3.945069 -4.173852
v -2.017839 0.529391 -2.691105
vn -0.486269 -3.945068 -4.352348
v -2.509558 0.529391 -2.742787
vn -2.214490 -3.945068 -3.778285
v -2.979786 0.529391 -2.590001
vn -3.559801 -3.945069 -2.550919
v -3.347217 0.529391 -2.259165
vn -4.289593 -3.945070 -0.882477
v -3.548319 0.529391 -1.807483
vn -4.277673 -3.945071 0.938552
v -3.548319 0.529391 -1.313056
vn -3.526105 -3.945073 2.597296
v -3.347217 0.529391 -0.861374
vn -2.164845 -3.945072 3.806944
v -2.979786 0.529391 -0.530538
vn -0.429258 -3.945071 4.358338
v -2.509558 0.529391 -0.377751
vn 1.380548 -3.945070 4.156137
v -2.017839 0.529391 -0.429433
vn 2.951647 -3.945070 3.235299
v -1.589653 0.529391 -0.676646
vn 4.012379 -3.945070 1.755049
v -1.299036 0.529391 -1.076646
vn 4.379333 -3.945069 -0.028663
v -1.196239 0.529391 -1.560269
vn 4.634336 -2.935683 -2.086487
v -1.119425 0.800000 -2.123860
vn 3.385028 -2.935681 -3.791056
v -1.458096 0.800000 -2.590000
vn 1.550418 -2.935680 -4.840116
v -1.957084 0.800000 -2.878091
vn -0.552274 -2.935683 -5.052276
v -2.530109 0.800000 -2.938319
vn -2.559474 -2.935683 -4.390854
v -3.078090 0.800000 -2.760269
vn -4.124118 -2.935682 -2.970212
v -3.506277 0.800000 -2.374728
vn -4.975664 -2.935681 -1.035993
v -3.740631 0.800000 -1.848360
vn -4.966871 -2.935682 1.077358
v -3.740631 0.800000 -1.272178
vn -4.099260 -2.935684 3.004423
v -3.506277 0.800000 -0.745810
vn -2.522851 -2.935683 4.411996
v -3.078091 0.800000 -0.360269
vn -0.510217 -2.935683 5.056696
v -2.530109 0.800000 -0.182219
vn 1.590637 -2.935681 4.827048
v -1.957084 0.800000 -0.242447
vn 3.416454 -2.935681 3.762758
v -1.458096 0.800000 -0.530537
vn 4.651537 -2.935683 2.047852
v -1.119425 0.800000 -0.996678
vn 5.082326 -2.935685 -0.021145
v -0.999630 0.800000 -1.560269
vn 5.077144 -1.808514 -2.274655
v -0.995137 1.105573 -2.179196
vn 3.713017 -1.808513 -4.143061
v -1.367061 1.105573 -2.691105
vn 1.706877 -1.808512 -5.295094
v -1.915042 1.105573 -3.007482
vn -0.594397 -1.808510 -5.531559
v -2.544330 1.105573 -3.073623
vn -2.792897 -1.808512 -4.811566
v -3.146115 1.105573 -2.878092
vn -4.508480 -1.808512 -3.259610
v -3.616344 1.105573 -2.454696
vn -5.444504 -1.808512 -1.144037
v -3.873708 1.105573 -1.876647
vn -5.439125 -1.808509 1.169349
v -3.873708 1.105573 -1.243892
vn -4.493271 -1.808508 3.280544
v -3.616344 1.105573 -0.665842
vn -2.770489 -1.808511 4.824505
v -3.146116 1.105573 -0.242447
vn -0.568663 -1.808510 5.534265
v -2.544330 1.105573 -0.046915
vn 1.731488 -1.808511 5.287099
v -1.915042 1.105573 -0.113056
vn 3.732248 -1.808510 4.125746
v -1.367061 1.105573 -0.429433
vn 5.087671 -1.808511 2.251014
v -0.995137 1.105573 -0.941342
vn 5.563387 -1.808513 -0.012939
v -0.863580 1.105573 -1.560269
vn 5.303596 -0.610676 -2.366078
v -0.931605 1.432755 -2.207482
vn 3.882704 -0.610677 -4.318686
v -1.320526 1.432755 -2.742787
vn 1.790460 -0.610677 -5.524555
v -1.893552 1.432755 -3.073623
vn -0.611369 -0.610677 -5.775177
v -2.551599 1.432755 -3.142787
vn -2.907491 -0.610675 -5.027221
v -3.180888 1.432755 -2.938319
vn -4.700881 -0.610675 -3.410011
v -3.672606 1.432755 -2.495574
vn -5.681445 -0.610674 -1.203179
v -3.941733 1.432755 -1.891106
vn -5.679635 -0.610674 1.211695
v -3.941733 1.432755 -1.229433
vn -4.695766 -0.610672 3.417052
v -3.672606 1.432755 -0.624965
vn -2.899955 -0.610675 5.031571
v -3.180888 1.432755 -0.182219
vn -0.602712 -0.610679 5.776087
v -2.551600 1.432755 0.022249
vn 1.798739 -0.610677 5.521865
v -1.893552 1.432755 -0.046915
vn 3.889175 -0.610677 4.312860
v -1.320526 1.432755 -0.377751
vn 5.307137 -0.610676 2.358125
v -0.931605 1.432755 -0.913056
vn 5.807446 -0.610676 -0.004353
v -0.794035 1.432755 -1.560269
vn 5.307137 0.610677 -2.358126
v -0.931605 1.767245 -2.207482
vn 3.889175 0.610677 -4.312860
v -1.320526 1.767245 -2.742787
vn 1.798740 0.610677 -5.521865
v -1.893552 1.767245 -3.073623
vn -0.602710 0.610676 -5.776088
v -2.551599 1.767245 -3.142787
vn -2.899951 0.610675 -5.031573
v -3.180888 1.767245 -2.938319
vn -4.695764 0.610674 -3.417054
v -3.672606 1.767245 -2.495574
vn -5.679634 0.610674 -1.211695
v -3.941733 1.767245 -1.891106
vn -5.681445 0.610672 1.203179
v -3.941733 1.767245 -1.229433
vn -4.700883 0.610672 3.410010
v -3.672606 1.767245 -0.624965
vn -2.907495 0.610677 5.027217
v -3.180888 1.767245 -0.182219
vn -0.611371 0.610678 5.775177
v -2.551600 1.767245 0.022249
vn 1.790459 0.610677 5.524555
v -1.893552 1.767245 -0.046915
vn 3.882704 0.610677 4.318686
v -1.320526 1.767245 -0.377751
vn 5.303597 0.610676 2.366078
v -0.931605 1.767245 -0.913056
vn 5.807446 0.610676 0.004354
v -0.794035 1.767245 -1.560269
vn 5.087669 1.808513 -2.251015
v -0.995137 2.094427 -2.179196
vn 3.732249 1.808513 -4.125745
v -1.367061 2.094427 -2.691105
vn 1.731488 1.808511 -5.287098
v -1.915042 2.094427 -3.007482
vn -0.568661 1.808511 -5.534264
v -2.544330 2.094427 -3.073623
vn -2.770485 1.808513 -4.824505
v -3.146115 2.094427 -2.878092
vn -4.493269 1.808513 -3.280545
v -3.616344 2.094427 -2.454696
vn -5.439124 1.808511 -1.169350
v -3.873708 2.094427 -1.876647
vn -5.444505 1.808510 1.144036
v -3.873708 2.094427 -1.243892
vn -4.508482 1.808507 3.259609
v -3.616344 2.094427 -0.665842
vn -2.792900 1.808508 4.811566
v -3.146116 2.094427 -0.242447
vn -0.594398 1.808512 5.531559
v -2.544330 2.094427 -0.046915
vn 1.706876 1.808510 5.295096
v -1.915042 2.094427 -0.113056
vn 3.713017 1.808511 4.143062
v -1.367061 2.094427 -0.429433
vn 5.077145 1.808512 2.274654
v -0.995137 2.094427 -0.941342
vn 5.563386 1.808513 0.012939
v -0.863580 2.094427 -1.560269
vn 4.651537 2.935684 -2.047853
v -1.119425 2.400000 -2.123860
vn 3.416455 2.935682 -3.762758
v -1.458096 2.400000 -2.590000
vn 1.590638 2.935683 -4.827046
v -1.957084 2.400000 -2.878091
vn -0.510216 2.935682 -5.056697
v -2.530109 2.400000 -2.938319
vn -2.522850 2.935682 -4.411999
v -3.078090 2.400000 -2.760269
vn -4.099260 2.935683 -3.004425
v -3.506277 2.400000 -2.374728
vn -4.966871 2.935683 -1.077358
v -3.740631 2.400000 -1.848360
vn -4.975663 2.935684 1.035992
v -3.740631 2.400000 -1.272178
vn -4.124116 2.935687 2.970208
v -3.506277 2.400000 -0.745810
vn -2.559476 2.935685 4.390850
v -3.078091 2.400000 -0.360269
vn -0.552275 2.935682 5.052276
v -2.530109 2.400000 -0.182219
vn 1.550416 2.935681 4.840117
v -1.957084 2.400000 -0.242447
vn 3.385026 2.935681 3.791055
v -1.458096 2.400000 -0.530537
vn 4.634336 2.935683 2.086486
v -1.119425 2.400000 -0.996678
vn 5.082326 2.935686 0.021145
v -0.999630 2.400000 -1.560269
vn 4.012379 3.945070 -1.755050
v -1.299036 2.670609 -2.043892
vn 2.951648 3.945068 -3.235301
v -1.589653 2.670609 -2.443892
vn 1.380552 3.945067 -4.156138
v -2.017839 2.670609 -2.691105
vn -0.429257 3.945070 -4.358339
v -2.509558 2.670609 -2.742787
vn -2.164842 3.945070 -3.806947
v -2.979786 2.670609 -2.590001
vn -3.526105 3.945069 -2.597298
v -3.347217 2.670609 -2.259165
vn -4.277674 3.945070 -0.938552
v -3.548319 2.670609 -1.807483
vn -4.289593 3.945070 0.882478
v -3.548319 2.670609 -1.313056
vn -3.559803 3.945071 2.550918
v -3.347217 2.670609 -0.861374
vn -2.214490 3.945073 3.778280
v -2.979786 2.670609 -0.530538
vn -0.486272 3.945072 4.352345
v -2.509558 2.670609 -0.377751
vn 1.326028 3.945070 4.173851
v -2.017839 2.670609 -0.429433
vn 2.909044 3.945070 3.273659
v -1.589653 2.670609 -0.676646
vn 3.989062 3.945070 1.807420
v -1.299036 2.670609 -1.076646
vn 4.379334 3.945070 0.028663
v -1.196239 2.670609 -1.560269
vn 3.192507 4.790747 -1.382942
v -1.526121 2.894427 -1.942787
vn 2.354005 4.790748 -2.561890
v -1.755982 2.894427 -2.259164
vn 1.108478 4.790747 -3.297864
v -2.094653 2.894427 -2.454696
vn -0.328718 4.790746 -3.463607
v -2.483575 2.894427 -2.495574
vn -1.709075 4.790748 -3.030460
v -2.855498 2.894427 -2.374728
vn -2.793914 4.790749 -2.073320
v -3.146115 2.894427 -2.113056
vn -3.395664 4.790749 -0.757683
v -3.305175 2.894427 -1.755801
vn -3.410270 4.790749 0.688964
v -3.305175 2.894427 -1.364737
vn -2.835213 4.790748 2.016481
v -3.146115 2.894427 -1.007483
vn -1.769918 4.790746 2.995333
v -2.855499 2.894427 -0.745810
vn -0.398590 4.790747 3.456263
v -2.483575 2.894427 -0.624965
vn 1.041658 4.790748 3.319574
v -2.094653 2.894427 -0.665842
vn 2.301796 4.790748 2.608899
v -1.755982 2.894427 -0.861374
vn 3.163930 4.790749 1.447124
v -1.526121 2.894427 -1.177751
vn 3.478992 4.790748 0.035128
v -1.444814 2.894427 -1.560269
vn 2.224053 5.430561 -0.946271
v -1.790755 3.061673 -1.824965
vn 1.646889 5.430561 -1.769066
v -1.949814 3.061673 -2.043892
vn 0.784966 5.430561 -2.285974
v -2.184169 3.061673 -2.179196
vn -0.212687 5.430561 -2.407613
v -2.453295 3.061673 -2.207483
vn -1.173568 5.430561 -2.112956
v -2.710660 3.061673 -2.123860
vn -1.931523 5.430560 -1.452952
v -2.911761 3.061673 -1.942787
vn -2.355503 5.430560 -0.541717
v -3.021828 3.061673 -1.695574
vn -2.372195 5.430560 0.463188
v -3.021828 3.061673 -1.424965
vn -1.978713 5.430560 1.388000
v -2.911761 3.061673 -1.177751
vn -1.243091 5.430561 2.072815
v -2.710660 3.061673 -0.996678
vn -0.292529 5.430561 2.399223
v -2.453295 3.061673 -0.913056
vn 0.708609 5.430561 2.310781
v -2.184169 3.061673 -0.941342
vn 1.587229 5.430561 1.822784
v -1.949814 3.061673 -1.076646
vn 2.191401 5.430561 1.019611
v -1.790755 3.061673 -1.295574
vn 2.416655 5.430562 0.040141
v -1.734492 3.061673 -1.560269
vn 0.880382 2.937056 -0.320226
v -2.081372 3.165036 -1.695574
vn 0.674021 2.937056 -0.650624
v -2.162678 3.165036 -1.807483
vn 0.351115 2.937056 -0.868525
v -2.282473 3.165036 -1.876646
vn -0.032498 2.937056 -0.936248
v -2.420043 3.165036 -1.891106
vn -0.410499 2.937056 -0.842085
v -2.551600 3.165036 -1.848360
vn -0.717515 2.937056 -0.602320
v -2.654397 3.165036 -1.755801
vn -0.900468 2.937056 -0.258408
v -2.710660 3.165036 -1.629433
vn -0.927722 2.937056 0.130187
v -2.710660 3.165036 -1.491106
vn -0.794565 2.937056 0.496270
v -2.654397 3.165036 -1.364737
vn -0.524019 2.937056 0.776544
v -2.551600 3.165036 -1.272178
vn -0.162865 2.937056 0.922547
v -2.420043 3.165036 -1.229433
vn 0.226446 2.937056 0.909032
v -2.282473 3.165036 -1.243892
vn 0.576605 2.937056 0.738336
v -2.162678 3.165036 -1.313056
vn 0.827066 2.937055 0.439976
v -2.081371 3.165036 -1.424965
vn 0.934517 2.937056 0.065542
v -2.052612 3.165036 -1.560269
vn -0.000000 -0.675154 -0.000000
v -2.385270 -0.000000 -1.560269
vn 0.000000 0.675154 -0.000000
v -2.385270 3.200000 -1.560269
# 212 vertices, 0 vertices normals

f 1//1 2//2 17//17
f 1//1 17//17 16//16
f 2//2 3//3 18//18
f 2//2 18//18 17//17
f 3//3 4//4 19//19
f 3//3 19//19 18//18
f 4//4 5//5 20//20
f 4//4 20//20 19//19
f 5//5 6//6 21//21
f 5//5 21//21 20//20
f 6//6 7//7 22//22
f 6//6 22//22 21//21
f 7//7 8//8 23//23
f 7//7 23//23 22//22
f 8//8 9//9 24//24
f 8//8 24//24 23//23
f 9//9 10//10 25//25
f 9//9 25//25 24//24
f 10//10 11//11 26//26
f 10//10 26//26 25//25
f 11//11 12//12 27//27
f 11//11 27//27 26//26
f 12//12 13//13 28//28
f 12//12 28//28 27//27
f 13//13 14//14 29//29
f 13//13 29//29 28//28
f 14//14 15//15 30//30
f 14//14 30//30 29//29
f 15//15 1//1 16//16
f 15//15 16//16 30//30
f 16//16 17//17 32//32
f 16//16 32//32 31//31
f 17//17 18//18 33//33
f 17//17 33//33 32//32
f 18//18 19//19 34//34
f 18//18 34//34 33//33
f 19//19 20//20 35//35
f 19//19 35//35 34//34
f 20//20 21//21 36//36
f 20//20 36//36 35//35
f 21//21 22//22 37//37
f 21//21 37//37 36//36
f 22//22 23//23 38//38
f 22//22 38//38 37//37
f 23//23 24//24 39//39
f 23//23 39//39 38//38
f 24//24 25//25 40//40
f 24//24 40//40 39//39
f 25//25 26//26 41//41
f 25//25 41//41 40//40
f 26//26 27//27 42//42
f 26//26 42//42 41//41
f 27//27 28//28 43//43
f 27//27 43//43 42//42
f 28//28 29//29 44//44
f 28//28 44//44 43//43
f 29//29 30//30 45//45
f 29//29 45//45 44//44
f 30//30 16//16 31//31
f 30//30 31//31 45//45
f 31//31 32//32 47//47
f 31//31 47//47 46//46
f 32//32 33//33 48//48
f 32//32 48//48 47//47
f 33//33 34//34 49//49
f 33//33 49//49 48//48
f 34//34 35//35 50//50
f 34//34 50//50 49//49
f 35//35 36//36 51//51
f 35//35 51//51 50//50
f 36//36 37//37 52//52
f 36//36 52//52 51//51
f 37//37 38//38 53//53
f 37//37 53//53 52//52
f 38//38 39//39 54//54
f 38//38 54//54 53//53
f 39//39 40//40 55//55
f 39//39 55//55 54//54
f 40//40 41//41 56//56
f 40//40 56//56 55//55
f 41//41 42//42 57//57
f 41//41 57//57 56//56
f 42//42 43//43 58//58
f 42//42 58//58 57//57
f 43//43 44//44 59//59
f 43//43 59//59 58//58
f 44//44 45//45 60//60
f 44//44 60//60 59//59
f 45//45 31//31 46//46
f 45//45 46//46 60//60
f 46//46 47//47 62//62
f 46//46 62//62 61//61
f 47//47 48//48 63//63
f 47//47 63//63 62//62
f 48//48 49//49 64//64
f 48//48 64//64 63//63
f 49//49 50//50 65//65
f 49//49 65//65 64//64
f 50//50 51//51 66//66
f 50//50 66//66 65//65
f 51//51 52//52 67//67
f 51//51 67//67 66//66
f 52//52 53//53 68//68
f 52//52 68//68 67//67
f 53//53 54//54 69//69
f 53//53 69//69 68//68
f 54//54 55//55 70//70
f 54//54 70//70 69//69
f 55//55 56//56 71//71
f 55//55 71//71 70//70
f 56//56 57//57 72//72
f 56//56 72//72 71//71
f 57//57 58//58 73//73
f 57//57 73//73 72//72
f 58//58 59//59 74//74
f 58//58 74//74 73//73
f 59//59 60//60 75//75
f 59//59 75//75 74//74
f 60//60 46//46 61//61
f 60//60 61//61 75//75
f 61//61 62//62 77//77
f 61//61 77//77 76//76
f 62//62 63//63 78//78
f 62//62 78//78 77//77
f 63//63 64//64 79//79
f 63//63 79//79 78//78
f 64//64 65//65 80//80
f 64//64 80//80 79//79
f 65//65 66//66 81//81
f 65//65 81//81 80//80
f 66//66 67//67 82//82
f 66//66 82//82 81//81
f 67//67 68//68 83//83
f 67//67 83//83 82//82
f 68//68 69//69 84//84
f 68//68 84//84 83//83
f 69//69 70//70 85//85
f 69//69 85//85 84//84
f 70//70 71//71 86//86
f 70//70 86//86 85//85
f 71//71 72//72 87//87
f 71//71 87//87 86//86
f 72//72 73//73 88//88
f 72//72 88//88 87//87
f 73//73 74//74 89//89
f 73//73 89//89 88//88
f 74//74 75//75 90//90
f 74//74 90//90 89//89
f 75//75 61//61 76//76
f 75//75 76//76 90//90
f 76//76 77//77 92//92
f 76//76 92//92 91//91
f 77//77 78//78 93//93
f 77//77 93//93 92//92
f 78//78 79//79 94//94
f 78//78 94//94 93//93
f 79//79 80//80 95//95
f 79//79 95//95 94//94
f 80//80 81//81 96//96
f 80//80 96//96 95//95
f 81//81 82//82 97//97
f 81//81 97//97 96//96
f 82//82 83//83 98//98
f 82//82 98//98 97//97
f 83//83 84//84 99//99
f 83//83 99//99 98//98
f 84//84 85//85 100//100
f 84//84 100//100 99//99
f 85//85 86//86 101//101
f 85//85 101//101 100//100
f 86//86 87//87 102//102
f 86//86 102//102 101//101
f 87//87 88//88 103//103
f 87//87 103//103 102//102
f 88//88 89//89 104//104
f 88//88 104//104 103//103
f 89//89 90//90 105//105
f 89//89 105//105 104//104
f 90//90 76//76 91//91
f 90//90 91//91 105//105
f 91//91 92//92 107//107
f 91//91 107//107 106//106
f 92//92 93//93 108//108
f 92//92 108//108 107//107
f 93//93 94//94 109//109
f 93//93 109//109 108//108
f 94//94 95//95 110//110
f 94//94 110//110 109//109
f 95//95 96//96 111//111
f 95//95 111//111 110//110
f 96//96 97//97 112//112
f 96//96 112//112 111//111
f 97//97 98//98 113//113
f 97//97 113//113 112//112
f 98//98 99//99 114//114
f 98//98 114//114 113//113
f 99//99 100//100 115//115
f 99//99 115//115 114//114
f 100//100 101//101 116//116
f 100//100 116//116 115//115
f 101//101 102//102 117//117
f 101//101 117//117 116//116
f 102//102 103//103 118//118
f 102//102 118//118 117//117
f 103//103 104//104 119//119
f 103//103 119//119 118//118
f 104//104 105//105 120//120
f 104//104 120//120 119//119
f 105//105 91//91 106//106
f 105//105 106//106 120//120
f 106//106 107//107 122//122
f 106//106 122//122 121//121
f 107//107 108//108 123//123
f 107//107 123//123 122//122
f 108//108 109//109 124//124
f 108//108 124//124 123//123
f 109//109 110//110 125//125
f 109//109 125//125 124//124
f 110//110 111//111 126//126
f 110//110 126//126 125//125
f 111//111 112//112 127//127
f 111//111 127//127 126//126
f 112//112 113//113 128//128
f 112//112 128//128 127//127
f 113//113 114//114 129//129
f 113//113 129//129 128//128
f 114//114 115//115 130//130
f 114//114 130//130 129//129
f 115//115 116//116 131//131
f 115//115 131//131 130//130
f 116//116 117//117 132//132
f 116//116 132//132 131//131
f 117//117 118//118 133//133
f 117//117 133//133 132//132
f 118//118 119//119 134//134
f 118//118 134//134 133//133
f 119//119 120//120 135//135
f 119//119 135//135 134//134
f 120//120 106//106 121//121
f 120//120 121//121 135//135
f 121//121 122//122 137//137
f 121//121 137//137 136//136
f 122//122 123//123 138//138
f 122//122 138//138 137//137
f 123//123 124//124 139//139
f 123//123 139//139 138//138
f 124//124 125//125 140//140
f 124//124 140//140 139//139
f 125//125 126//126 141//141
f 125//125 141//141 140//140
f 126//126 127//127 142//142
f 126//126 142//142 141//141
f 127//127 128//128 143//143
f 127//127 143//143 142//142
f 128//128 129//129 144//144
f 128//128 144//144 143//143
f 129//129 130//130 145//145
f 129//129 145//145 144//144
f 130//130 131//131 146//146
f 130//130 146//146 145//145
f 131//131 132//132 147//147
f 131//131 147//147 146//146
f 132//132 133//133 148//148
f 132//132 148//148 147//147
f 133//133 134//134 149//149
f 133//133 149//149 148//148
f 134//134 135//135 150//150
f 134//134 150//150 149//149
f 135//135 121//121 136//136
f 135//135 136//136 150//150
f 136//136 137//137 152//152
f 136//136 152//152 151//151
f 137//137 138//138 153//153
f 137//137 153//153 152//152
f 138//138 139//139 154//154
f 138//138 154//154 153//153
f 139//139 140//140 155//155
f 139//139 155//155 154//154
f 140//140 141//141 156//156
f 140//140 156//156 155//155
f 141//141 142//142 157//157
f 141//141 157//157 156//156
f 142//142 143//143 158//158
f 142//142 158//158 157//157
f 143//143 144//144 159//159
f 143//143 159//159 158//158
f 144//144 145//145 160//160
f 144//144 160//160 159//159
f 145//145 146//146 161//161
f 145//145 161//161 160//160
f 146//146 147//147 162//162
f 146//146 162//162 161//161
f 147//147 148//148 163//163
f 147//147 163//163 162//162
f 148//148 149//149 164//164
f 148//148 164//164 163//163
f 149//149 150//150 165//165
f 149//149 165//165 164//164
f 150//150 136//136 151//151
f 150//150 151//151 165//165
f 151//151 152//152 167//167
f 151//151 167//167 166//166
f 152//152 153//153 168//168
f 152//152 168//168 167//167
f 153//153 154//154 169//169
f 153//153 169//169 168//168
f 154//154 155//155 170//170
f 154//154 170//170 169//169
f 155//155 156//156 171//171
f 155//155 171//171 170//170
f 156//156 157//157 172//172
f 156//156 172//172 171//171
f 157//157 158//158 173//173
f 157//157 173//173 172//172
f 158//158 159//159 174//174
f 158//158 174//174 173//173
f 159//159 160//160 175//175
f 159//159 175//175 174//174
f 160//160 161//161 176//176
f 160//160 176//176 175//175
f 161//161 162//162 177//177
f 161//161 177//177 176//176
f 162//162 163//163 178//178
f 162//162 178//178 177//177
f 163//163 164//164 179//179
f 163//163 179//179 178//178
f 164//164 165//165 180//180
f 164//164 180//180 179//179
f 165//165 151//151 166//166
f 165//165 166//166 180//180
f 166//166 167//167 182//182
f 166//166 182//182 181//181
f 167//167 168//168 183//183
f 167//167 183//183 182//182
f 168//168 169//169 184//184
f 168//168 184//184 183//183
f 169//169 170//170 185//185
f 169//169 185//185 184//184
f 170//170 171//171 186//186
f 170//170 186//186 185//185
f 171//171 172//172 187//187
f 171//171 187//187 186//186
f 172//172 173//173 188//188
f 172//172 188//188 187//187
f 173//173 174//174 189//189
f 173//173 189//189 188//188
f 174//174 175//175 190//190
f 174//174 190//190 189//189
f 175//175 176//176 191//191
f 175//175 191//191 190//190
f 176//176 177//177 192//192
f 176//176 192//192 191//191
f 177//177 178//178 193//193
f 177//177 193//193 192//192
f 178//178 179//179 194//194
f 178//178 194//194 193//193
f 179//179 180//180 195//195
f 179//179 195//195 194//194
f 180//180 166//166 181//181
f 180//180 181//181 195//195
f 181//181 182//182 197//197
f 181//181 197//197 196//196
f 182//182 183//183 198//198
f 182//182 198//198 197//197
f 183//183 184//184 199//199
f 183//183 199//199 198//198
f 184//184 185//185 200//200
f 184//184 200//200 199//199
f 185//185 186//186 201//201
f 185//185 201//201 200//200
f 186//186 187//187 202//202
f 186//186 202//202 201//201
f 187//187 188//188 203//203
f 187//187 203//203 202//202
f 188//188 189//189 204//204
f 188//188 204//204 203//203
f 189//189 190//190 205//205
f 189//189 205//205 204//204
f 190//190 191//191 206//206
f 190//190 206//206 205//205
f 191//191 192//192 207//207
f 191//191 207//207 206//206
f 192//192 193//193 208//208
f 192//192 208//208 207//207
f 193//193 194//194 209//209
f 193//193 209//209 208//208
f 194//194 195//195 210//210
f 194//194 210//210 209//209
f 195//195 181//181 196//196
f 195//195 196//196 210//210
f 2//2 1//1 211//211
f 3//3 2//2 211//211
f 4//4 3//3 211//211
f 5//5 4//4 211//211
f 6//6 5//5 211//211
f 7//7 6//6 211//211
f 8//8 7//7 211//211
f 9//9 8//8 211//211
f 10//10 9//9 211//211
f 11//11 10//10 211//211
f 12//12 11//11 211//211
f 13//13 12//12 211//211
f 14//14 13//13 211//211
f 15//15 14//14 211//211
f 1//1 15//15 211//211
f 196//196 197//197 212//212
f 197//197 198//198 212//212
f 198//198 199//199 212//212
f 199//199 200//200 212//212
f 200//200 201//201 212//212
f 201//201 202//202 212//212
f 202//202 203//203 212//212
f 203//203 204//204 212//212
f 204//204 205//205 212//212
f 205//205 206//206 212//212
f 206//206 207//207 212//212
f 207//207 208//208 212//212
f 208//208 209//209 212//212
f 209//209 210//210 212//212
f 210//210 196//196 212//212
# 420 faces, 0 coords texture

# End of File
