####
#
# OBJ File Generated by Meshlab
#
####
# Object sphere2.obj
#
# Vertices: 212
# Faces: 420
#
####
vn 0.827064 -2.937056 -0.439978
v 2.544327 0.034964 1.790460
vn 0.576607 -2.937056 -0.738336
v 2.463020 0.034964 1.678551
vn 0.226447 -2.937056 -0.909031
v 2.343225 0.034964 1.609387
vn -0.162867 -2.937056 -0.922546
v 2.205656 0.034964 1.594928
vn -0.524018 -2.937056 -0.776546
v 2.074099 0.034964 1.637673
vn -0.794564 -2.937056 -0.496270
v 1.971301 0.034964 1.730232
vn -0.927720 -2.937056 -0.130186
v 1.915039 0.034964 1.856601
vn -0.900467 -2.937056 0.258407
v 1.915039 0.034964 1.994928
vn -0.717514 -2.937056 0.602320
v 1.971301 0.034964 2.121296
vn -0.410498 -2.937057 0.842086
v 2.074099 0.034964 2.213855
vn -0.032502 -2.937056 0.936248
v 2.205656 0.034964 2.256601
vn 0.351116 -2.937056 0.868523
v 2.343225 0.034964 2.242142
vn 0.674020 -2.937056 0.650624
v 2.463020 0.034964 2.172978
vn 0.880381 -2.937057 0.320226
v 2.544327 0.034964 2.061069
vn 0.934516 -2.937056 -0.065543
v 2.573087 0.034964 1.925764
vn 2.191402 -5.430559 -1.019616
v 2.834944 0.138327 1.661069
vn 1.587230 -5.430561 -1.822785
v 2.675884 0.138327 1.442142
vn 0.708612 -5.430561 -2.310781
v 2.441530 0.138327 1.306837
vn -0.292532 -5.430561 -2.399222
v 2.172403 0.138327 1.278551
vn -1.243091 -5.430561 -2.072817
v 1.915039 0.138327 1.362174
vn -1.978710 -5.430560 -1.388003
v 1.713937 0.138327 1.543246
vn -2.372195 -5.430560 -0.463187
v 1.603870 0.138327 1.790460
vn -2.355501 -5.430560 0.541716
v 1.603870 0.138327 2.061069
vn -1.931522 -5.430561 1.452951
v 1.713937 0.138327 2.308282
vn -1.173567 -5.430560 2.112957
v 1.915039 0.138327 2.489355
vn -0.212690 -5.430560 2.407615
v 2.172403 0.138327 2.572978
vn 0.784965 -5.430560 2.285975
v 2.441530 0.138327 2.544692
vn 1.646891 -5.430560 1.769067
v 2.675884 0.138327 2.409387
vn 2.224054 -5.430560 0.946272
v 2.834944 0.138327 2.190460
vn 2.416660 -5.430559 -0.040143
v 2.891207 0.138327 1.925764
vn 3.163933 -4.790747 -1.447124
v 3.099577 0.305573 1.543247
vn 2.301799 -4.790747 -2.608899
v 2.869716 0.305573 1.226869
vn 1.041661 -4.790748 -3.319573
v 2.531045 0.305573 1.031337
vn -0.398590 -4.790748 -3.456262
v 2.142124 0.305573 0.990460
vn -1.769917 -4.790748 -2.995332
v 1.770200 0.305573 1.111305
vn -2.835210 -4.790748 -2.016483
v 1.479583 0.305573 1.372978
vn -3.410271 -4.790749 -0.688964
v 1.320523 0.305573 1.730232
vn -3.395665 -4.790749 0.757683
v 1.320523 0.305573 2.121296
vn -2.793914 -4.790749 2.073320
v 1.479583 0.305573 2.478551
vn -1.709075 -4.790748 3.030459
v 1.770200 0.305573 2.740223
vn -0.328720 -4.790748 3.463606
v 2.142123 0.305573 2.861069
vn 1.108477 -4.790747 3.297865
v 2.531045 0.305573 2.820191
vn 2.354005 -4.790746 2.561893
v 2.869716 0.305573 2.624660
vn 3.192505 -4.790749 1.382942
v 3.099578 0.305573 2.308282
vn 3.478992 -4.790748 -0.035132
v 3.180884 0.305573 1.925764
vn 3.989059 -3.945074 -1.807420
v 3.326662 0.529391 1.442142
vn 2.909046 -3.945072 -3.273654
v 3.036046 0.529391 1.042142
vn 1.326030 -3.945070 -4.173850
v 2.607859 0.529391 0.794928
vn -0.486271 -3.945072 -4.352345
v 2.116141 0.529391 0.743246
vn -2.214489 -3.945072 -3.778281
v 1.645912 0.529391 0.896033
vn -3.559801 -3.945071 -2.550918
v 1.278481 0.529391 1.226869
vn -4.289593 -3.945070 -0.882478
v 1.077379 0.529391 1.678551
vn -4.277674 -3.945070 0.938552
v 1.077379 0.529391 2.172978
vn -3.526106 -3.945069 2.597298
v 1.278481 0.529391 2.624660
vn -2.164842 -3.945069 3.806947
v 1.645912 0.529391 2.955496
vn -0.429261 -3.945069 4.358339
v 2.116140 0.529391 3.108282
vn 1.380548 -3.945071 4.156135
v 2.607859 0.529391 3.056601
vn 2.951645 -3.945072 3.235299
v 3.036045 0.529391 2.809387
vn 4.012376 -3.945072 1.755050
v 3.326663 0.529391 2.409387
vn 4.379329 -3.945074 -0.028668
v 3.429460 0.529391 1.925764
vn 4.634337 -2.935682 -2.086486
v 3.506274 0.800000 1.362174
vn 3.385028 -2.935683 -3.791052
v 3.167603 0.800000 0.896033
vn 1.550417 -2.935682 -4.840115
v 2.668615 0.800000 0.607942
vn -0.552276 -2.935681 -5.052276
v 2.095589 0.800000 0.547714
vn -2.559476 -2.935682 -4.390852
v 1.547608 0.800000 0.725764
vn -4.124117 -2.935682 -2.970212
v 1.119421 0.800000 1.111305
vn -4.975663 -2.935682 -1.035993
v 0.885067 0.800000 1.637673
vn -4.966871 -2.935680 1.077360
v 0.885067 0.800000 2.213855
vn -4.099262 -2.935679 3.004425
v 1.119421 0.800000 2.740223
vn -2.522853 -2.935683 4.411998
v 1.547608 0.800000 3.125764
vn -0.510220 -2.935685 5.056696
v 2.095589 0.800000 3.303814
vn 1.590632 -2.935684 4.827047
v 2.668614 0.800000 3.243587
vn 3.416454 -2.935685 3.762756
v 3.167603 0.800000 2.955496
vn 4.651538 -2.935681 2.047852
v 3.506274 0.800000 2.489355
vn 5.082329 -2.935679 -0.021147
v 3.626069 0.800000 1.925764
vn 5.077148 -1.808505 -2.274654
v 3.630561 1.105573 1.306838
vn 3.713021 -1.808507 -4.143060
v 3.258638 1.105573 0.794928
vn 1.706877 -1.808510 -5.295095
v 2.710656 1.105573 0.478551
vn -0.594400 -1.808511 -5.531559
v 2.081368 1.105573 0.412410
vn -2.792900 -1.808509 -4.811567
v 1.479583 1.105573 0.607942
vn -4.508480 -1.808509 -3.259612
v 1.009355 1.105573 1.031337
vn -5.444504 -1.808511 -1.144038
v 0.751990 1.105573 1.609387
vn -5.439123 -1.808514 1.169351
v 0.751990 1.105573 2.242141
vn -4.493270 -1.808513 3.280546
v 1.009355 1.105573 2.820191
vn -2.770489 -1.808510 4.824504
v 1.479583 1.105573 3.243587
vn -0.568666 -1.808512 5.534263
v 2.081368 1.105573 3.439119
vn 1.731486 -1.808511 5.287098
v 2.710656 1.105573 3.372978
vn 3.732249 -1.808507 4.125745
v 3.258638 1.105573 3.056601
vn 5.087673 -1.808507 2.251013
v 3.630561 1.105573 2.544692
vn 5.563390 -1.808506 -0.012941
v 3.762118 1.105573 1.925764
vn 5.303596 -0.610675 -2.366079
v 3.694093 1.432755 1.278551
vn 3.882709 -0.610673 -4.318685
v 3.305172 1.432755 0.743247
vn 1.790463 -0.610675 -5.524554
v 2.732147 1.432755 0.412410
vn -0.611371 -0.610678 -5.775177
v 2.074099 1.432755 0.343246
vn -2.907493 -0.610677 -5.027219
v 1.444811 1.432755 0.547714
vn -4.700881 -0.610676 -3.410011
v 0.953092 1.432755 0.990460
vn -5.681444 -0.610676 -1.203180
v 0.683965 1.432755 1.594928
vn -5.679634 -0.610677 1.211696
v 0.683965 1.432755 2.256601
vn -4.695764 -0.610679 3.417054
v 0.953092 1.432755 2.861069
vn -2.899953 -0.610676 5.031572
v 1.444810 1.432755 3.303814
vn -0.602716 -0.610671 5.776089
v 2.074099 1.432755 3.508282
vn 1.798740 -0.610674 5.521864
v 2.732147 1.432755 3.439119
vn 3.889177 -0.610673 4.312860
v 3.305172 1.432755 3.108282
vn 5.307138 -0.610672 2.358125
v 3.694093 1.432755 2.572978
vn 5.807446 -0.610675 -0.004355
v 3.831663 1.432755 1.925764
vn 5.307138 0.610674 -2.358125
v 3.694093 1.767245 1.278551
vn 3.889177 0.610673 -4.312860
v 3.305172 1.767245 0.743247
vn 1.798743 0.610676 -5.521863
v 2.732147 1.767245 0.412410
vn -0.602713 0.610678 -5.776087
v 2.074099 1.767245 0.343246
vn -2.899953 0.610677 -5.031572
v 1.444811 1.767245 0.547714
vn -4.695764 0.610676 -3.417055
v 0.953092 1.767245 0.990460
vn -5.679634 0.610676 -1.211696
v 0.683965 1.767245 1.594928
vn -5.681444 0.610678 1.203180
v 0.683965 1.767245 2.256601
vn -4.700881 0.610679 3.410010
v 0.953092 1.767245 2.861069
vn -2.907493 0.610673 5.027220
v 1.444810 1.767245 3.303814
vn -0.611373 0.610672 5.775179
v 2.074099 1.767245 3.508282
vn 1.790458 0.610674 5.524555
v 2.732147 1.767245 3.439119
vn 3.882709 0.610671 4.318685
v 3.305172 1.767245 3.108282
vn 5.303596 0.610673 2.366078
v 3.694093 1.767245 2.572978
vn 5.807446 0.610675 0.004352
v 3.831663 1.767245 1.925764
vn 5.087673 1.808507 -2.251014
v 3.630561 2.094427 1.306838
vn 3.732251 1.808507 -4.125744
v 3.258638 2.094427 0.794928
vn 1.731489 1.808509 -5.287099
v 2.710656 2.094427 0.478551
vn -0.568664 1.808510 -5.534265
v 2.081368 2.094427 0.412410
vn -2.770489 1.808510 -4.824506
v 1.479583 2.094427 0.607942
vn -4.493270 1.808509 -3.280547
v 1.009355 2.094427 1.031337
vn -5.439124 1.808512 -1.169351
v 0.751990 2.094427 1.609387
vn -5.444504 1.808512 1.144039
v 0.751990 2.094427 2.242141
vn -4.508481 1.808514 3.259610
v 1.009355 2.094427 2.820191
vn -2.792901 1.808514 4.811563
v 1.479583 2.094427 3.243587
vn -0.594401 1.808510 5.531559
v 2.081368 2.094427 3.439119
vn 1.706874 1.808511 5.295095
v 2.710656 2.094427 3.372978
vn 3.713019 1.808508 4.143060
v 3.258638 2.094427 3.056601
vn 5.077147 1.808504 2.274654
v 3.630561 2.094427 2.544692
vn 5.563390 1.808505 0.012937
v 3.762118 2.094427 1.925764
vn 4.651539 2.935682 -2.047851
v 3.506274 2.400000 1.362174
vn 3.416456 2.935683 -3.762754
v 3.167603 2.400000 0.896033
vn 1.590637 2.935683 -4.827046
v 2.668615 2.400000 0.607942
vn -0.510217 2.935683 -5.056695
v 2.095589 2.400000 0.547714
vn -2.522851 2.935682 -4.411998
v 1.547608 2.400000 0.725764
vn -4.099259 2.935682 -3.004425
v 1.119421 2.400000 1.111305
vn -4.966871 2.935681 -1.077359
v 0.885067 2.400000 1.637673
vn -4.975663 2.935681 1.035993
v 0.885067 2.400000 2.213855
vn -4.124119 2.935679 2.970213
v 1.119421 2.400000 2.740223
vn -2.559477 2.935683 4.390852
v 1.547608 2.400000 3.125764
vn -0.552280 2.935686 5.052275
v 2.095589 2.400000 3.303814
vn 1.550413 2.935686 4.840114
v 2.668614 2.400000 3.243587
vn 3.385024 2.935686 3.791054
v 3.167603 2.400000 2.955496
vn 4.634337 2.935682 2.086485
v 3.506274 2.400000 2.489355
vn 5.082328 2.935681 0.021143
v 3.626069 2.400000 1.925764
vn 4.012376 3.945075 -1.755049
v 3.326662 2.670609 1.442142
vn 2.951648 3.945072 -3.235296
v 3.036046 2.670609 1.042142
vn 1.380550 3.945071 -4.156135
v 2.607859 2.670609 0.794928
vn -0.429257 3.945071 -4.358338
v 2.116141 2.670609 0.743246
vn -2.164843 3.945073 -3.806944
v 1.645912 2.670609 0.896033
vn -3.526104 3.945072 -2.597297
v 1.278481 2.670609 1.226869
vn -4.277673 3.945072 -0.938552
v 1.077379 2.670609 1.678551
vn -4.289593 3.945070 0.882477
v 1.077379 2.670609 2.172978
vn -3.559802 3.945070 2.550919
v 1.278481 2.670609 2.624660
vn -2.214490 3.945068 3.778284
v 1.645912 2.670609 2.955496
vn -0.486273 3.945070 4.352346
v 2.116140 2.670609 3.108282
vn 1.326026 3.945071 4.173850
v 2.607859 2.670609 3.056601
vn 2.909043 3.945072 3.273659
v 3.036045 2.670609 2.809387
vn 3.989058 3.945073 1.807419
v 3.326663 2.670609 2.409387
vn 4.379330 3.945074 0.028660
v 3.429460 2.670609 1.925764
vn 3.192507 4.790748 -1.382944
v 3.099577 2.894427 1.543247
vn 2.354008 4.790748 -2.561887
v 2.869716 2.894427 1.226869
vn 1.108476 4.790747 -3.297863
v 2.531045 2.894427 1.031337
vn -0.328718 4.790748 -3.463605
v 2.142124 2.894427 0.990460
vn -1.709074 4.790748 -3.030460
v 1.770200 2.894427 1.111305
vn -2.793916 4.790748 -2.073320
v 1.479583 2.894427 1.372978
vn -3.395664 4.790748 -0.757684
v 1.320523 2.894427 1.730232
vn -3.410270 4.790749 0.688964
v 1.320523 2.894427 2.121296
vn -2.835209 4.790750 2.016482
v 1.479583 2.894427 2.478551
vn -1.769918 4.790749 2.995331
v 1.770200 2.894427 2.740223
vn -0.398590 4.790747 3.456263
v 2.142123 2.894427 2.861069
vn 1.041660 4.790747 3.319575
v 2.531045 2.894427 2.820191
vn 2.301795 4.790747 2.608902
v 2.869716 2.894427 2.624660
vn 3.163930 4.790748 1.447124
v 3.099578 2.894427 2.308282
vn 3.478993 4.790748 0.035123
v 3.180884 2.894427 1.925764
vn 2.224055 5.430559 -0.946274
v 2.834944 3.061673 1.661069
vn 1.646892 5.430560 -1.769065
v 2.675884 3.061673 1.442142
vn 0.784965 5.430561 -2.285972
v 2.441530 3.061673 1.306837
vn -0.212689 5.430561 -2.407614
v 2.172403 3.061673 1.278551
vn -1.173563 5.430561 -2.112958
v 1.915039 3.061673 1.362174
vn -1.931521 5.430561 -1.452951
v 1.713937 3.061673 1.543246
vn -2.355501 5.430560 -0.541716
v 1.603870 3.061673 1.790460
vn -2.372194 5.430560 0.463188
v 1.603870 3.061673 2.061069
vn -1.978710 5.430561 1.388002
v 1.713937 3.061673 2.308282
vn -1.243093 5.430561 2.072815
v 1.915039 3.061673 2.489355
vn -0.292533 5.430560 2.399222
v 2.172403 3.061673 2.572978
vn 0.708613 5.430560 2.310782
v 2.441530 3.061673 2.544692
vn 1.587229 5.430560 1.822787
v 2.675884 3.061673 2.409387
vn 2.191399 5.430560 1.019614
v 2.834944 3.061673 2.190460
vn 2.416658 5.430560 0.040139
v 2.891207 3.061673 1.925764
vn 0.880381 2.937056 -0.320227
v 2.544327 3.165036 1.790460
vn 0.674021 2.937056 -0.650625
v 2.463020 3.165036 1.678551
vn 0.351116 2.937056 -0.868523
v 2.343225 3.165036 1.609387
vn -0.032501 2.937056 -0.936248
v 2.205656 3.165036 1.594928
vn -0.410496 2.937056 -0.842088
v 2.074099 3.165036 1.637673
vn -0.717514 2.937056 -0.602321
v 1.971301 3.165036 1.730232
vn -0.900467 2.937056 -0.258406
v 1.915039 3.165036 1.856601
vn -0.927720 2.937056 0.130187
v 1.915039 3.165036 1.994928
vn -0.794564 2.937057 0.496271
v 1.971301 3.165036 2.121296
vn -0.524020 2.937057 0.776544
v 2.074099 3.165036 2.213855
vn -0.162868 2.937056 0.922545
v 2.205656 3.165036 2.256601
vn 0.226447 2.937056 0.909031
v 2.343225 3.165036 2.242142
vn 0.576607 2.937056 0.738336
v 2.463020 3.165036 2.172978
vn 0.827064 2.937056 0.439978
v 2.544327 3.165036 2.061069
vn 0.934516 2.937056 0.065542
v 2.573087 3.165036 1.925764
vn 0.000000 -0.675154 -0.000000
v 2.240428 -0.000000 1.925764
vn -0.000000 0.675154 0.000000
v 2.240428 3.200000 1.925764
# 212 vertices, 0 vertices normals

f 1//1 2//2 17//17
f 1//1 17//17 16//16
f 2//2 3//3 18//18
f 2//2 18//18 17//17
f 3//3 4//4 19//19
f 3//3 19//19 18//18
f 4//4 5//5 20//20
f 4//4 20//20 19//19
f 5//5 6//6 21//21
f 5//5 21//21 20//20
f 6//6 7//7 22//22
f 6//6 22//22 21//21
f 7//7 8//8 23//23
f 7//7 23//23 22//22
f 8//8 9//9 24//24
f 8//8 24//24 23//23
f 9//9 10//10 25//25
f 9//9 25//25 24//24
f 10//10 11//11 26//26
f 10//10 26//26 25//25
f 11//11 12//12 27//27
f 11//11 27//27 26//26
f 12//12 13//13 28//28
f 12//12 28//28 27//27
f 13//13 14//14 29//29
f 13//13 29//29 28//28
f 14//14 15//15 30//30
f 14//14 30//30 29//29
f 15//15 1//1 16//16
f 15//15 16//16 30//30
f 16//16 17//17 32//32
f 16//16 32//32 31//31
f 17//17 18//18 33//33
f 17//17 33//33 32//32
f 18//18 19//19 34//34
f 18//18 34//34 33//33
f 19//19 20//20 35//35
f 19//19 35//35 34//34
f 20//20 21//21 36//36
f 20//20 36//36 35//35
f 21//21 22//22 37//37
f 21//21 37//37 36//36
f 22//22 23//23 38//38
f 22//22 38//38 37//37
f 23//23 24//24 39//39
f 23//23 39//39 38//38
f 24//24 25//25 40//40
f 24//24 40//40 39//39
f 25//25 26//26 41//41
f 25//25 41//41 40//40
f 26//26 27//27 42//42
f 26//26 42//42 41//41
f 27//27 28//28 43//43
f 27//27 43//43 42//42
f 28//28 29//29 44//44
f 28//28 44//44 43//43
f 29//29 30//30 45//45
f 29//29 45//45 44//44
f 30//30 16//16 31//31
f 30//30 31//31 45//45
f 31//31 32//32 47//47
f 31//31 47//47 46//46
f 32//32 33//33 48//48
f 32//32 48//48 47//47
f 33//33 34//34 49//49
f 33//33 49//49 48//48
f 34//34 35//35 50//50
f 34//34 50//50 49//49
f 35//35 36//36 51//51
f 35//35 51//51 50//50
f 36//36 37//37 52//52
f 36//36 52//52 51//51
f 37//37 38//38 53//53
f 37//37 53//53 52//52
f 38//38 39//39 54//54
f 38//38 54//54 53//53
f 39//39 40//40 55//55
f 39//39 55//55 54//54
f 40//40 41//41 56//56
f 40//40 56//56 55//55
f 41//41 42//42 57//57
f 41//41 57//57 56//56
f 42//42 43//43 58//58
f 42//42 58//58 57//57
f 43//43 44//44 59//59
f 43//43 59//59 58//58
f 44//44 45//45 60//60
f 44//44 60//60 59//59
f 45//45 31//31 46//46
f 45//45 46//46 60//60
f 46//46 47//47 62//62
f 46//46 62//62 61//61
f 47//47 48//48 63//63
f 47//47 63//63 62//62
f 48//48 49//49 64//64
f 48//48 64//64 63//63
f 49//49 50//50 65//65
f 49//49 65//65 64//64
f 50//50 51//51 66//66
f 50//50 66//66 65//65
f 51//51 52//52 67//67
f 51//51 67//67 66//66
f 52//52 53//53 68//68
f 52//52 68//68 67//67
f 53//53 54//54 69//69
f 53//53 69//69 68//68
f 54//54 55//55 70//70
f 54//54 70//70 69//69
f 55//55 56//56 71//71
f 55//55 71//71 70//70
f 56//56 57//57 72//72
f 56//56 72//72 71//71
f 57//57 58//58 73//73
f 57//57 73//73 72//72
f 58//58 59//59 74//74
f 58//58 74//74 73//73
f 59//59 60//60 75//75
f 59//59 75//75 74//74
f 60//60 46//46 61//61
f 60//60 61//61 75//75
f 61//61 62//62 77//77
f 61//61 77//77 76//76
f 62//62 63//63 78//78
f 62//62 78//78 77//77
f 63//63 64//64 79//79
f 63//63 79//79 78//78
f 64//64 65//65 80//80
f 64//64 80//80 79//79
f 65//65 66//66 81//81
f 65//65 81//81 80//80
f 66//66 67//67 82//82
f 66//66 82//82 81//81
f 67//67 68//68 83//83
f 67//67 83//83 82//82
f 68//68 69//69 84//84
f 68//68 84//84 83//83
f 69//69 70//70 85//85
f 69//69 85//85 84//84
f 70//70 71//71 86//86
f 70//70 86//86 85//85
f 71//71 72//72 87//87
f 71//71 87//87 86//86
f 72//72 73//73 88//88
f 72//72 88//88 87//87
f 73//73 74//74 89//89
f 73//73 89//89 88//88
f 74//74 75//75 90//90
f 74//74 90//90 89//89
f 75//75 61//61 76//76
f 75//75 76//76 90//90
f 76//76 77//77 92//92
f 76//76 92//92 91//91
f 77//77 78//78 93//93
f 77//77 93//93 92//92
f 78//78 79//79 94//94
f 78//78 94//94 93//93
f 79//79 80//80 95//95
f 79//79 95//95 94//94
f 80//80 81//81 96//96
f 80//80 96//96 95//95
f 81//81 82//82 97//97
f 81//81 97//97 96//96
f 82//82 83//83 98//98
f 82//82 98//98 97//97
f 83//83 84//84 99//99
f 83//83 99//99 98//98
f 84//84 85//85 100//100
f 84//84 100//100 99//99
f 85//85 86//86 101//101
f 85//85 101//101 100//100
f 86//86 87//87 102//102
f 86//86 102//102 101//101
f 87//87 88//88 103//103
f 87//87 103//103 102//102
f 88//88 89//89 104//104
f 88//88 104//104 103//103
f 89//89 90//90 105//105
f 89//89 105//105 104//104
f 90//90 76//76 91//91
f 90//90 91//91 105//105
f 91//91 92//92 107//107
f 91//91 107//107 106//106
f 92//92 93//93 108//108
f 92//92 108//108 107//107
f 93//93 94//94 109//109
f 93//93 109//109 108//108
f 94//94 95//95 110//110
f 94//94 110//110 109//109
f 95//95 96//96 111//111
f 95//95 111//111 110//110
f 96//96 97//97 112//112
f 96//96 112//112 111//111
f 97//97 98//98 113//113
f 97//97 113//113 112//112
f 98//98 99//99 114//114
f 98//98 114//114 113//113
f 99//99 100//100 115//115
f 99//99 115//115 114//114
f 100//100 101//101 116//116
f 100//100 116//116 115//115
f 101//101 102//102 117//117
f 101//101 117//117 116//116
f 102//102 103//103 118//118
f 102//102 118//118 117//117
f 103//103 104//104 119//119
f 103//103 119//119 118//118
f 104//104 105//105 120//120
f 104//104 120//120 119//119
f 105//105 91//91 106//106
f 105//105 106//106 120//120
f 106//106 107//107 122//122
f 106//106 122//122 121//121
f 107//107 108//108 123//123
f 107//107 123//123 122//122
f 108//108 109//109 124//124
f 108//108 124//124 123//123
f 109//109 110//110 125//125
f 109//109 125//125 124//124
f 110//110 111//111 126//126
f 110//110 126//126 125//125
f 111//111 112//112 127//127
f 111//111 127//127 126//126
f 112//112 113//113 128//128
f 112//112 128//128 127//127
f 113//113 114//114 129//129
f 113//113 129//129 128//128
f 114//114 115//115 130//130
f 114//114 130//130 129//129
f 115//115 116//116 131//131
f 115//115 131//131 130//130
f 116//116 117//117 132//132
f 116//116 132//132 131//131
f 117//117 118//118 133//133
f 117//117 133//133 132//132
f 118//118 119//119 134//134
f 118//118 134//134 133//133
f 119//119 120//120 135//135
f 119//119 135//135 134//134
f 120//120 106//106 121//121
f 120//120 121//121 135//135
f 121//121 122//122 137//137
f 121//121 137//137 136//136
f 122//122 123//123 138//138
f 122//122 138//138 137//137
f 123//123 124//124 139//139
f 123//123 139//139 138//138
f 124//124 125//125 140//140
f 124//124 140//140 139//139
f 125//125 126//126 141//141
f 125//125 141//141 140//140
f 126//126 127//127 142//142
f 126//126 142//142 141//141
f 127//127 128//128 143//143
f 127//127 143//143 142//142
f 128//128 129//129 144//144
f 128//128 144//144 143//143
f 129//129 130//130 145//145
f 129//129 145//145 144//144
f 130//130 131//131 146//146
f 130//130 146//146 145//145
f 131//131 132//132 147//147
f 131//131 147//147 146//146
f 132//132 133//133 148//148
f 132//132 148//148 147//147
f 133//133 134//134 149//149
f 133//133 149//149 148//148
f 134//134 135//135 150//150
f 134//134 150//150 149//149
f 135//135 121//121 136//136
f 135//135 136//136 150//150
f 136//136 137//137 152//152
f 136//136 152//152 151//151
f 137//137 138//138 153//153
f 137//137 153//153 152//152
f 138//138 139//139 154//154
f 138//138 154//154 153//153
f 139//139 140//140 155//155
f 139//139 155//155 154//154
f 140//140 141//141 156//156
f 140//140 156//156 155//155
f 141//141 142//142 157//157
f 141//141 157//157 156//156
f 142//142 143//143 158//158
f 142//142 158//158 157//157
f 143//143 144//144 159//159
f 143//143 159//159 158//158
f 144//144 145//145 160//160
f 144//144 160//160 159//159
f 145//145 146//146 161//161
f 145//145 161//161 160//160
f 146//146 147//147 162//162
f 146//146 162//162 161//161
f 147//147 148//148 163//163
f 147//147 163//163 162//162
f 148//148 149//149 164//164
f 148//148 164//164 163//163
f 149//149 150//150 165//165
f 149//149 165//165 164//164
f 150//150 136//136 151//151
f 150//150 151//151 165//165
f 151//151 152//152 167//167
f 151//151 167//167 166//166
f 152//152 153//153 168//168
f 152//152 168//168 167//167
f 153//153 154//154 169//169
f 153//153 169//169 168//168
f 154//154 155//155 170//170
f 154//154 170//170 169//169
f 155//155 156//156 171//171
f 155//155 171//171 170//170
f 156//156 157//157 172//172
f 156//156 172//172 171//171
f 157//157 158//158 173//173
f 157//157 173//173 172//172
f 158//158 159//159 174//174
f 158//158 174//174 173//173
f 159//159 160//160 175//175
f 159//159 175//175 174//174
f 160//160 161//161 176//176
f 160//160 176//176 175//175
f 161//161 162//162 177//177
f 161//161 177//177 176//176
f 162//162 163//163 178//178
f 162//162 178//178 177//177
f 163//163 164//164 179//179
f 163//163 179//179 178//178
f 164//164 165//165 180//180
f 164//164 180//180 179//179
f 165//165 151//151 166//166
f 165//165 166//166 180//180
f 166//166 167//167 182//182
f 166//166 182//182 181//181
f 167//167 168//168 183//183
f 167//167 183//183 182//182
f 168//168 169//169 184//184
f 168//168 184//184 183//183
f 169//169 170//170 185//185
f 169//169 185//185 184//184
f 170//170 171//171 186//186
f 170//170 186//186 185//185
f 171//171 172//172 187//187
f 171//171 187//187 186//186
f 172//172 173//173 188//188
f 172//172 188//188 187//187
f 173//173 174//174 189//189
f 173//173 189//189 188//188
f 174//174 175//175 190//190
f 174//174 190//190 189//189
f 175//175 176//176 191//191
f 175//175 191//191 190//190
f 176//176 177//177 192//192
f 176//176 192//192 191//191
f 177//177 178//178 193//193
f 177//177 193//193 192//192
f 178//178 179//179 194//194
f 178//178 194//194 193//193
f 179//179 180//180 195//195
f 179//179 195//195 194//194
f 180//180 166//166 181//181
f 180//180 181//181 195//195
f 181//181 182//182 197//197
f 181//181 197//197 196//196
f 182//182 183//183 198//198
f 182//182 198//198 197//197
f 183//183 184//184 199//199
f 183//183 199//199 198//198
f 184//184 185//185 200//200
f 184//184 200//200 199//199
f 185//185 186//186 201//201
f 185//185 201//201 200//200
f 186//186 187//187 202//202
f 186//186 202//202 201//201
f 187//187 188//188 203//203
f 187//187 203//203 202//202
f 188//188 189//189 204//204
f 188//188 204//204 203//203
f 189//189 190//190 205//205
f 189//189 205//205 204//204
f 190//190 191//191 206//206
f 190//190 206//206 205//205
f 191//191 192//192 207//207
f 191//191 207//207 206//206
f 192//192 193//193 208//208
f 192//192 208//208 207//207
f 193//193 194//194 209//209
f 193//193 209//209 208//208
f 194//194 195//195 210//210
f 194//194 210//210 209//209
f 195//195 181//181 196//196
f 195//195 196//196 210//210
f 2//2 1//1 211//211
f 3//3 2//2 211//211
f 4//4 3//3 211//211
f 5//5 4//4 211//211
f 6//6 5//5 211//211
f 7//7 6//6 211//211
f 8//8 7//7 211//211
f 9//9 8//8 211//211
f 10//10 9//9 211//211
f 11//11 10//10 211//211
f 12//12 11//11 211//211
f 13//13 12//12 211//211
f 14//14 13//13 211//211
f 15//15 14//14 211//211
f 1//1 15//15 211//211
f 196//196 197//197 212//212
f 197//197 198//198 212//212
f 198//198 199//199 212//212
f 199//199 200//200 212//212
f 200//200 201//201 212//212
f 201//201 202//202 212//212
f 202//202 203//203 212//212
f 203//203 204//204 212//212
f 204//204 205//205 212//212
f 205//205 206//206 212//212
f 206//206 207//207 212//212
f 207//207 208//208 212//212
f 208//208 209//209 212//212
f 209//209 210//210 212//212
f 210//210 196//196 212//212
# 420 faces, 0 coords texture

# End of File
